<svg width="26" height="20" viewBox="0 0 26 20" fill="none" xmlns="http://www.w3.org/2000/svg">
<g clip-path="url(#clip0_1_360)">
<mask id="mask0_1_360" style="mask-type:alpha" maskUnits="userSpaceOnUse" x="6" y="7" width="13" height="13">
<path fill-rule="evenodd" clip-rule="evenodd" d="M10.0979 7.55257C9.88025 7.42707 9.61222 7.42714 9.39468 7.55277L6.93155 8.97514C6.65 9.13772 6.47656 9.43816 6.47656 9.76328V15.5793C6.47656 15.9044 6.65 16.2049 6.93155 16.3674L11.9689 19.2763C12.2495 19.4384 12.5952 19.439 12.8765 19.2778L17.9257 16.3844C18.2095 16.2218 18.3841 15.9195 18.3834 15.5925L18.3692 9.77727C18.3684 9.45363 18.1958 9.15475 17.9158 8.99231L15.4642 7.56965C15.2472 7.44372 14.9795 7.44292 14.7617 7.56754C14.2913 7.83676 14.2893 8.51445 14.7581 8.78648L16.511 9.80365C16.7909 9.96609 16.9635 10.265 16.9643 10.5886L16.9745 14.7784C16.9753 15.1054 16.8006 15.4077 16.5169 15.5703L12.8792 17.6548C12.598 17.8159 12.2522 17.8154 11.9716 17.6533L8.33841 15.5553C8.05686 15.3927 7.88342 15.0923 7.88342 14.7671V10.5755C7.88342 10.2503 8.05686 9.9499 8.33841 9.78731L10.0982 8.77109C10.5673 8.50023 10.5671 7.82315 10.0979 7.55257Z" fill="#232323"/>
<path d="M10.0982 8.77109L10.0898 8.75658L10.0982 8.77109ZM8.33841 9.78731L8.33004 9.77281L8.33841 9.78731ZM8.33841 15.5553L8.33004 15.5698L8.33841 15.5553ZM12.8792 17.6548L12.8875 17.6693L12.8792 17.6548ZM16.9745 14.7784L16.9912 14.7783L16.9745 14.7784ZM16.5169 15.5703L16.5252 15.5848L16.5169 15.5703ZM16.511 9.80365L16.5026 9.81814L16.511 9.80365ZM16.9643 10.5886L16.9475 10.5887L16.9643 10.5886ZM15.4642 7.56965L15.4558 7.58414L15.4642 7.56965ZM14.7617 7.56754L14.7701 7.58208L14.7617 7.56754ZM18.3692 9.77727L18.3859 9.77723L18.3692 9.77727ZM17.9158 8.99231L17.9074 9.0068L17.9158 8.99231ZM17.9257 16.3844L17.9174 16.3699L17.9257 16.3844ZM18.3834 15.5925L18.3666 15.5926L18.3834 15.5925ZM11.9689 19.2763L11.9772 19.2618L11.9689 19.2763ZM12.8765 19.2778L12.8681 19.2633L12.8765 19.2778ZM9.39468 7.55277L9.3863 7.53826L9.39468 7.55277ZM6.93993 8.98964L9.40306 7.56727L9.3863 7.53826L6.92318 8.96063L6.93993 8.98964ZM6.49331 15.5793V9.76328H6.45981V15.5793H6.49331ZM11.9772 19.2618L6.93993 16.3529L6.92318 16.3819L11.9605 19.2908L11.9772 19.2618ZM17.9174 16.3699L12.8681 19.2633L12.8848 19.2924L17.9341 16.399L17.9174 16.3699ZM18.3524 9.77731L18.3666 15.5926L18.4001 15.5925L18.3859 9.77723L18.3524 9.77731ZM15.4558 7.58414L17.9074 9.0068L17.9242 8.97782L15.4726 7.55517L15.4558 7.58414ZM14.7497 8.80097L16.5026 9.81814L16.5194 9.78916L14.7665 8.772L14.7497 8.80097ZM16.9475 10.5887L16.9578 14.7784L16.9912 14.7783L16.981 10.5886L16.9475 10.5887ZM16.5086 15.5557L12.8708 17.6403L12.8875 17.6693L16.5252 15.5848L16.5086 15.5557ZM11.9799 17.6388L8.34679 15.5408L8.33004 15.5698L11.9632 17.6678L11.9799 17.6388ZM7.90017 14.7671V10.5755H7.86668V14.7671H7.90017ZM8.34679 9.80181L10.1066 8.78559L10.0898 8.75658L8.33004 9.77281L8.34679 9.80181ZM10.1066 8.78559C10.5868 8.50829 10.5866 7.81509 10.1062 7.53806L10.0895 7.56708C10.5475 7.83122 10.5477 8.49218 10.0898 8.75658L10.1066 8.78559ZM7.90017 10.5755C7.90017 10.2563 8.07042 9.96141 8.34679 9.80181L8.33004 9.77281C8.0433 9.93838 7.86668 10.2443 7.86668 10.5755H7.90017ZM8.34679 15.5408C8.07042 15.3812 7.90017 15.0863 7.90017 14.7671H7.86668C7.86668 15.0982 8.0433 15.4042 8.33004 15.5698L8.34679 15.5408ZM12.8708 17.6403C12.5948 17.7984 12.2555 17.7979 11.9799 17.6388L11.9632 17.6678C12.249 17.8329 12.6011 17.8334 12.8875 17.6693L12.8708 17.6403ZM16.9578 14.7784C16.9585 15.0994 16.7871 15.3961 16.5086 15.5557L16.5252 15.5848C16.8142 15.4192 16.9921 15.1114 16.9912 14.7783L16.9578 14.7784ZM16.5026 9.81814C16.7773 9.97758 16.9468 10.271 16.9475 10.5887L16.981 10.5886C16.9802 10.259 16.8044 9.95459 16.5194 9.78916L16.5026 9.81814ZM14.7534 7.55301C14.2718 7.82863 14.2697 8.52246 14.7497 8.80097L14.7665 8.772C14.3088 8.50644 14.3108 7.84488 14.7701 7.58208L14.7534 7.55301ZM15.4726 7.55517C15.2504 7.42624 14.9764 7.42542 14.7534 7.55301L14.7701 7.58208C14.9826 7.46042 15.2439 7.46121 15.4558 7.58414L15.4726 7.55517ZM18.3859 9.77723C18.3851 9.44763 18.2093 9.14325 17.9242 8.97782L17.9074 9.0068C18.1822 9.16624 18.3516 9.45962 18.3524 9.77731L18.3859 9.77723ZM17.9341 16.399C18.223 16.2334 18.4009 15.9255 18.4001 15.5925L18.3666 15.5926C18.3674 15.9136 18.1959 16.2103 17.9174 16.3699L17.9341 16.399ZM11.9605 19.2908C12.2463 19.4559 12.5984 19.4565 12.8848 19.2924L12.8681 19.2633C12.5921 19.4215 12.2527 19.4209 11.9772 19.2618L11.9605 19.2908ZM6.45981 15.5793C6.45981 15.9104 6.63644 16.2164 6.92318 16.3819L6.93993 16.3529C6.66356 16.1933 6.49331 15.8984 6.49331 15.5793H6.45981ZM9.40306 7.56727C9.61542 7.44464 9.87707 7.44456 10.0895 7.56708L10.1062 7.53806C9.88344 7.40957 9.60903 7.40965 9.3863 7.53826L9.40306 7.56727ZM6.92318 8.96063C6.63644 9.12621 6.45981 9.43217 6.45981 9.76328H6.49331C6.49331 9.44414 6.66356 9.14924 6.93993 8.98964L6.92318 8.96063Z" fill="white"/>
</mask>
<g mask="url(#mask0_1_360)">
<path fill-rule="evenodd" clip-rule="evenodd" d="M10.0979 7.55257C9.88025 7.42707 9.61222 7.42714 9.39468 7.55277L6.93155 8.97514C6.65 9.13772 6.47656 9.43816 6.47656 9.76328V15.5793C6.47656 15.9044 6.65 16.2049 6.93155 16.3674L11.9689 19.2763C12.2495 19.4384 12.5952 19.439 12.8765 19.2778L17.9257 16.3844C18.2095 16.2218 18.3841 15.9195 18.3834 15.5925L18.3692 9.77727C18.3684 9.45363 18.1958 9.15475 17.9158 8.99231L15.4642 7.56965C15.2472 7.44372 14.9795 7.44292 14.7617 7.56754C14.2913 7.83676 14.2893 8.51445 14.7581 8.78648L16.511 9.80365C16.7909 9.96609 16.9635 10.265 16.9643 10.5886L16.9745 14.7784C16.9753 15.1054 16.8006 15.4077 16.5169 15.5703L12.8792 17.6548C12.598 17.8159 12.2522 17.8154 11.9716 17.6533L8.33841 15.5553C8.05686 15.3927 7.88342 15.0923 7.88342 14.7671V10.5755C7.88342 10.2503 8.05686 9.9499 8.33841 9.78731L10.0982 8.77109C10.5673 8.50023 10.5671 7.82315 10.0979 7.55257Z" fill="#232323"/>
<path d="M10.0982 8.77109L10.0898 8.75658L10.0982 8.77109ZM8.33841 9.78731L8.33004 9.77281L8.33841 9.78731ZM8.33841 15.5553L8.33004 15.5698L8.33841 15.5553ZM12.8792 17.6548L12.8875 17.6693L12.8792 17.6548ZM16.9745 14.7784L16.9912 14.7783L16.9745 14.7784ZM16.5169 15.5703L16.5252 15.5848L16.5169 15.5703ZM16.511 9.80365L16.5026 9.81814L16.511 9.80365ZM16.9643 10.5886L16.9475 10.5887L16.9643 10.5886ZM15.4642 7.56965L15.4558 7.58414L15.4642 7.56965ZM14.7617 7.56754L14.7701 7.58208L14.7617 7.56754ZM18.3692 9.77727L18.3859 9.77723L18.3692 9.77727ZM17.9158 8.99231L17.9074 9.0068L17.9158 8.99231ZM17.9257 16.3844L17.9174 16.3699L17.9257 16.3844ZM18.3834 15.5925L18.3666 15.5926L18.3834 15.5925ZM11.9689 19.2763L11.9772 19.2618L11.9689 19.2763ZM12.8765 19.2778L12.8681 19.2633L12.8765 19.2778ZM9.39468 7.55277L9.3863 7.53826L9.39468 7.55277ZM6.93993 8.98964L9.40306 7.56727L9.3863 7.53826L6.92318 8.96063L6.93993 8.98964ZM6.49331 15.5793V9.76328H6.45981V15.5793H6.49331ZM11.9772 19.2618L6.93993 16.3529L6.92318 16.3819L11.9605 19.2908L11.9772 19.2618ZM17.9174 16.3699L12.8681 19.2633L12.8848 19.2924L17.9341 16.399L17.9174 16.3699ZM18.3524 9.77731L18.3666 15.5926L18.4001 15.5925L18.3859 9.77723L18.3524 9.77731ZM15.4558 7.58414L17.9074 9.0068L17.9242 8.97782L15.4726 7.55517L15.4558 7.58414ZM14.7497 8.80097L16.5026 9.81814L16.5194 9.78916L14.7665 8.772L14.7497 8.80097ZM16.9475 10.5887L16.9578 14.7784L16.9912 14.7783L16.981 10.5886L16.9475 10.5887ZM16.5086 15.5557L12.8708 17.6403L12.8875 17.6693L16.5252 15.5848L16.5086 15.5557ZM11.9799 17.6388L8.34679 15.5408L8.33004 15.5698L11.9632 17.6678L11.9799 17.6388ZM7.90017 14.7671V10.5755H7.86668V14.7671H7.90017ZM8.34679 9.80181L10.1066 8.78559L10.0898 8.75658L8.33004 9.77281L8.34679 9.80181ZM10.1066 8.78559C10.5868 8.50829 10.5866 7.81509 10.1062 7.53806L10.0895 7.56708C10.5475 7.83122 10.5477 8.49218 10.0898 8.75658L10.1066 8.78559ZM7.90017 10.5755C7.90017 10.2563 8.07042 9.96141 8.34679 9.80181L8.33004 9.77281C8.0433 9.93838 7.86668 10.2443 7.86668 10.5755H7.90017ZM8.34679 15.5408C8.07042 15.3812 7.90017 15.0863 7.90017 14.7671H7.86668C7.86668 15.0982 8.0433 15.4042 8.33004 15.5698L8.34679 15.5408ZM12.8708 17.6403C12.5948 17.7984 12.2555 17.7979 11.9799 17.6388L11.9632 17.6678C12.249 17.8329 12.6011 17.8334 12.8875 17.6693L12.8708 17.6403ZM16.9578 14.7784C16.9585 15.0994 16.7871 15.3961 16.5086 15.5557L16.5252 15.5848C16.8142 15.4192 16.9921 15.1114 16.9912 14.7783L16.9578 14.7784ZM16.5026 9.81814C16.7773 9.97758 16.9468 10.271 16.9475 10.5887L16.981 10.5886C16.9802 10.259 16.8044 9.95459 16.5194 9.78916L16.5026 9.81814ZM14.7534 7.55301C14.2718 7.82863 14.2697 8.52246 14.7497 8.80097L14.7665 8.772C14.3088 8.50644 14.3108 7.84488 14.7701 7.58208L14.7534 7.55301ZM15.4726 7.55517C15.2504 7.42624 14.9764 7.42542 14.7534 7.55301L14.7701 7.58208C14.9826 7.46042 15.2439 7.46121 15.4558 7.58414L15.4726 7.55517ZM18.3859 9.77723C18.3851 9.44763 18.2093 9.14325 17.9242 8.97782L17.9074 9.0068C18.1822 9.16624 18.3516 9.45962 18.3524 9.77731L18.3859 9.77723ZM17.9341 16.399C18.223 16.2334 18.4009 15.9255 18.4001 15.5925L18.3666 15.5926C18.3674 15.9136 18.1959 16.2103 17.9174 16.3699L17.9341 16.399ZM11.9605 19.2908C12.2463 19.4559 12.5984 19.4565 12.8848 19.2924L12.8681 19.2633C12.5921 19.4215 12.2527 19.4209 11.9772 19.2618L11.9605 19.2908ZM6.45981 15.5793C6.45981 15.9104 6.63644 16.2164 6.92318 16.3819L6.93993 16.3529C6.66356 16.1933 6.49331 15.8984 6.49331 15.5793H6.45981ZM9.40306 7.56727C9.61542 7.44464 9.87707 7.44456 10.0895 7.56708L10.1062 7.53806C9.88344 7.40957 9.60903 7.40965 9.3863 7.53826L9.40306 7.56727ZM6.92318 8.96063C6.63644 9.12621 6.45981 9.43217 6.45981 9.76328H6.49331C6.49331 9.44414 6.66356 9.14924 6.93993 8.98964L6.92318 8.96063Z" fill="#232323"/>
</g>
<path d="M15.2983 6.52557L12.8906 7.90916C12.6089 8.07105 12.2623 8.07047 11.9811 7.90764L9.57793 6.51598C9.29692 6.35325 9.1239 6.05313 9.1239 5.7284V2.94235C9.1239 2.61762 9.29692 2.31749 9.57793 2.15476L11.9782 0.764763C12.2609 0.601047 12.6097 0.601416 12.8921 0.765729L15.2958 2.16454C15.5752 2.32712 15.7474 2.6257 15.7482 2.94895L15.755 5.73425C15.7558 6.06085 15.5815 6.36284 15.2983 6.52557Z" fill="#232323" stroke="#232323" stroke-width="0.0334967"/>
<path d="M0.716797 12.8281L7.18166 12.8281" stroke="#232323" stroke-width="1.40686" stroke-linecap="round"/>
<path d="M17.833 12.8281L24.2979 12.8281" stroke="#232323" stroke-width="1.40686" stroke-linecap="round"/>
<path d="M2.22168 18.7344L7.37752 15.7398" stroke="#232323" stroke-width="1.40686" stroke-linecap="round"/>
<path d="M22.6201 18.7344L17.4643 15.7398" stroke="#232323" stroke-width="1.40686" stroke-linecap="round"/>
<path d="M2.02246 6.96875L7.1783 9.96337" stroke="#232323" stroke-width="1.40686" stroke-linecap="round"/>
<path d="M22.8271 6.96875L17.6713 9.96337" stroke="#232323" stroke-width="1.40686" stroke-linecap="round"/>
</g>
<defs>
<clipPath id="clip0_1_360">
<rect width="25.0519" height="19" fill="white" transform="translate(0 0.5)"/>
</clipPath>
</defs>
</svg>
