<svg width="248" height="25" viewBox="0 0 248 25" fill="none" xmlns="http://www.w3.org/2000/svg">
<g clip-path="url(#clip0_1_1846)">
<path d="M19.1134 7.5904C18.5229 7.50979 17.9696 7.25589 17.5235 6.86079C17.0773 6.46568 16.7584 5.94717 16.6069 5.37078C16.4555 4.79438 16.4784 4.18599 16.6728 3.62262C16.8671 3.05925 17.2242 2.56619 17.6988 2.20577C18.1734 1.84535 18.7443 1.63374 19.3391 1.59778C19.934 1.56182 20.5262 1.70308 21.0408 2.0037C21.5553 2.30432 21.9692 2.75082 22.23 3.28668C22.4908 3.82253 22.5868 4.42367 22.506 5.01411C22.3969 5.80524 21.9784 6.52082 21.3424 7.0038C20.7064 7.48678 19.9048 7.69772 19.1134 7.5904ZM19.729 3.08872C19.4293 3.0475 19.124 3.09611 18.8519 3.22842C18.5798 3.36072 18.353 3.57077 18.2003 3.83197C18.0476 4.09317 17.9758 4.39376 17.9939 4.69579C18.0121 4.99781 18.1195 5.28768 18.3024 5.52868C18.4853 5.76969 18.7356 5.95102 19.0217 6.04974C19.3077 6.14846 19.6165 6.16016 19.9092 6.08331C20.2018 6.00645 20.4651 5.84451 20.6657 5.618C20.8663 5.39148 20.9952 5.11052 21.0361 4.81072C21.0902 4.40918 20.983 4.00261 20.7381 3.67989C20.4931 3.35717 20.1303 3.14461 19.729 3.08872Z" fill="#232323"/>
<path d="M23.4338 10.1904C23.6594 11.4175 23.686 12.6728 23.5124 13.9084C23.1681 16.4196 22.0247 18.7533 20.2513 20.5643C18.4778 22.3752 16.1686 23.5673 13.6651 23.9641C11.1617 24.3609 8.597 23.9414 6.35046 22.7677C4.10391 21.5939 2.29483 19.7282 1.19081 17.4466C0.0867983 15.165 -0.253502 12.5885 0.220237 10.0985C0.693976 7.60846 1.95659 5.33704 3.82133 3.62023C5.68606 1.90341 8.05388 0.832382 10.5745 0.565587C13.0951 0.298791 15.6347 0.850422 17.8175 2.13882L17.0636 3.41339C15.0526 2.22917 12.6992 1.76262 10.3885 2.09009C8.07778 2.41757 5.94667 3.51967 4.34391 5.21604C2.74114 6.91241 1.76165 9.10261 1.56572 11.4281C1.36979 13.7537 1.96902 16.0769 3.26536 18.0175C4.5617 19.9581 6.47838 21.4012 8.7017 22.1107C10.925 22.8202 13.3233 22.754 15.5041 21.9229C17.6849 21.0919 19.5191 19.5452 20.7064 17.536C21.8937 15.5269 22.3638 13.1741 22.0399 10.8629" fill="#232323"/>
</g>
<g clip-path="url(#clip1_1_1846)">
<path d="M34 8.40473H45.0515V3H46.4631V20.9082H45.0515V9.81641H35.452V19.4965H45.0515L43.6398 20.9082H34V8.40473Z" fill="#232323"/>
<path d="M55.3765 19.7749C52.4321 19.7749 50.2944 17.4356 50.2944 14.6122H61.2652C61.1442 10.1755 58.5225 8.07812 55.0941 8.07812C51.5851 8.07812 48.7617 10.9822 48.7617 14.5719C48.7617 18.1616 51.5044 21.0656 55.3765 21.0656C57.5948 21.0656 59.0468 20.0573 60.1762 19.0489L59.2485 18.0406C58.2402 18.9279 57.1511 19.7749 55.3765 19.7749ZM55.0538 9.40914C57.3528 9.40914 59.3292 10.7402 59.6115 13.3215H50.4154C50.8591 10.9822 52.8354 9.40914 55.0538 9.40914Z" fill="#232323"/>
<path d="M67.3551 20.9097H63.5234V8.40625H67.3551V12.1976L71.1465 8.40625H76.0269V20.9097H72.1952V12.1976H67.3551V20.9097Z" fill="#232323"/>
<path d="M81.6743 13.0379H86.837C86.6353 11.7069 85.506 11.1019 84.296 11.1019C83.3683 11.1422 82.0373 11.5456 81.6743 13.0379ZM78.0039 14.6109C78.0039 10.9002 80.6256 8.11719 84.4976 8.11719C87.684 8.11719 90.5881 10.2145 90.5881 14.2076C90.5881 14.5706 90.5477 14.9336 90.5074 15.3369H81.6743C81.8356 17.031 83.2876 17.6763 84.417 17.6763C85.5867 17.6763 86.3127 16.9906 86.837 16.0629L89.983 17.9183C88.8134 19.7333 86.958 21.145 84.4573 21.145C81.0693 21.1047 78.0039 18.483 78.0039 14.6109Z" fill="#232323"/>
<path d="M98.2914 4.61719V8.40856H102.405V11.7563H98.2914V17.4433H102.405V20.912H94.4597V11.7563H91.1523L98.2914 4.61719Z" fill="#232323"/>
</g>
<path d="M110.226 20.605C110.835 20.605 111.36 20.101 111.36 19.45C111.36 18.799 110.835 18.316 110.226 18.316C109.617 18.316 109.113 18.799 109.113 19.45C109.113 20.101 109.617 20.605 110.226 20.605ZM121.27 9.37C119.506 9.37 117.994 10.126 117.07 11.554V4.918H115.579V20.5H117.007V18.316C117.91 19.807 119.443 20.605 121.27 20.605C124.42 20.605 126.772 18.316 126.772 14.977C126.772 11.638 124.42 9.37 121.27 9.37ZM121.165 19.282C118.813 19.282 117.049 17.56 117.049 14.977C117.049 12.394 118.813 10.672 121.165 10.672C123.496 10.672 125.281 12.394 125.281 14.977C125.281 17.56 123.496 19.282 121.165 19.282ZM139.325 9.454V15.25C139.325 17.77 137.876 19.261 135.566 19.261C133.466 19.261 132.248 18.064 132.248 15.712V9.454H130.757V15.859C130.757 19.03 132.605 20.605 135.419 20.605C137.183 20.605 138.611 19.828 139.388 18.484V20.5H140.816V9.454H139.325ZM154.841 9.454V11.575C153.917 10.126 152.321 9.37 150.473 9.37C147.323 9.37 144.929 11.533 144.929 14.704C144.929 17.875 147.323 20.08 150.473 20.08C152.279 20.08 153.854 19.345 154.778 17.938V19.345C154.778 22.075 153.497 23.356 150.704 23.356C149.003 23.356 147.407 22.789 146.357 21.844L145.601 22.978C146.756 24.07 148.73 24.679 150.746 24.679C154.4 24.679 156.269 22.957 156.269 19.156V9.454H154.841ZM150.62 18.757C148.184 18.757 146.441 17.098 146.441 14.704C146.441 12.31 148.184 10.672 150.62 10.672C153.056 10.672 154.82 12.31 154.82 14.704C154.82 17.098 153.056 18.757 150.62 18.757ZM172.948 18.757C172.528 19.135 171.94 19.324 171.31 19.324C170.071 19.324 169.42 18.61 169.42 17.308V10.714H172.759V9.454H169.42V7.039H167.929V17.392C167.929 19.429 169.084 20.605 171.163 20.605C172.024 20.605 172.906 20.353 173.473 19.828L172.948 18.757ZM178.654 11.617V9.454H177.226V20.5H178.717V14.872C178.717 12.268 180.124 10.798 182.434 10.798C182.539 10.798 182.665 10.819 182.791 10.819V9.37C180.754 9.37 179.347 10.147 178.654 11.617ZM195.027 9.454V11.554C194.103 10.126 192.591 9.37 190.827 9.37C187.677 9.37 185.325 11.638 185.325 14.977C185.325 18.316 187.677 20.605 190.827 20.605C192.654 20.605 194.187 19.807 195.09 18.316V20.5H196.518V9.454H195.027ZM190.953 19.282C188.601 19.282 186.837 17.56 186.837 14.977C186.837 12.394 188.601 10.672 190.953 10.672C193.284 10.672 195.048 12.394 195.048 14.977C195.048 17.56 193.284 19.282 190.953 19.282ZM206.298 20.605C208.167 20.605 209.742 19.849 210.624 18.421L209.511 17.665C208.755 18.778 207.579 19.282 206.298 19.282C203.883 19.282 202.119 17.581 202.119 14.977C202.119 12.394 203.883 10.672 206.298 10.672C207.579 10.672 208.755 11.197 209.511 12.31L210.624 11.554C209.742 10.105 208.167 9.37 206.298 9.37C203.001 9.37 200.607 11.68 200.607 14.977C200.607 18.274 203.001 20.605 206.298 20.605ZM222.986 20.5H224.813L219.647 13.969L224.372 9.454H222.524L215.93 15.481V4.918H214.439V20.5H215.93V17.35L218.534 14.956L222.986 20.5ZM232.375 19.282C230.317 19.282 228.763 18.19 228.217 16.405L237.289 14.641C237.184 11.533 234.958 9.37 231.997 9.37C228.826 9.37 226.537 11.701 226.537 14.977C226.537 18.253 228.91 20.605 232.354 20.605C234.097 20.605 235.609 19.975 236.596 18.799L235.756 17.833C234.937 18.799 233.74 19.282 232.375 19.282ZM231.997 10.651C234.034 10.651 235.483 12.016 235.798 13.822L228.007 15.334C227.986 15.187 227.986 15.04 227.986 14.872C227.986 12.373 229.645 10.651 231.997 10.651ZM242.802 11.617V9.454H241.374V20.5H242.865V14.872C242.865 12.268 244.272 10.798 246.582 10.798C246.687 10.798 246.813 10.819 246.939 10.819V9.37C244.902 9.37 243.495 10.147 242.802 11.617Z" fill="#232323"/>
<defs>
<clipPath id="clip0_1_1846">
<rect width="24" height="24" fill="white" transform="translate(0 0.5)"/>
</clipPath>
<clipPath id="clip1_1_1846">
<rect width="69" height="19" fill="white" transform="translate(34 3)"/>
</clipPath>
</defs>
</svg>
