<svg width="21" height="21" viewBox="0 0 21 21" fill="none" xmlns="http://www.w3.org/2000/svg">
<path fill-rule="evenodd" clip-rule="evenodd" d="M20.9987 0.46449C20.9905 0.348609 20.9421 0.23504 20.8536 0.146447C20.7103 0.0032159 20.5018 -0.0349507 20.3238 0.0319467L0.334827 7.02808C0.141327 7.09581 0.00877504 7.27479 0.000418142 7.47963C-0.00793876 7.68447 0.109593 7.87366 0.296933 7.95692L9.1212 11.8788L13.0431 20.7031C13.1264 20.8904 13.3155 21.008 13.5204 20.9996C13.7252 20.9912 13.9042 20.8587 13.9719 20.6652L20.9684 0.67535C20.9937 0.607691 21.0038 0.535654 20.9987 0.46449ZM18.5971 1.69576L1.85554 7.55532L9.38926 10.9036L18.5971 1.69576ZM10.0964 11.6107L19.3043 2.40283L13.4447 19.1445L10.0964 11.6107Z" fill="white"/>
</svg>
