<svg width="24" height="25" viewBox="0 0 24 25" fill="none" xmlns="http://www.w3.org/2000/svg">
<path fill-rule="evenodd" clip-rule="evenodd" d="M4.99805 12C4.99805 8.41015 7.9082 5.5 11.498 5.5C15.0879 5.5 17.998 8.41015 17.998 12C17.998 13.7855 17.2799 15.4007 16.1136 16.5767L16.1665 16.6292L16.1136 16.5767C15.6774 17.0166 15.1792 17.3943 14.6337 17.6954C13.7052 18.2079 12.6377 18.5 11.498 18.5C7.9082 18.5 4.99805 15.5899 4.99805 12ZM17.145 16.9359C18.2991 15.6167 18.998 13.8903 18.998 12C18.998 7.85787 15.6402 4.5 11.498 4.5C7.35592 4.5 3.99805 7.85787 3.99805 12C3.99805 16.1421 7.35592 19.5 11.498 19.5C12.811 19.5 14.0442 19.163 15.1169 18.5709L14.8753 18.1331L15.1169 18.5709C15.591 18.3092 16.0337 17.9976 16.4382 17.6433L19.1484 20.3536C19.3437 20.5488 19.6602 20.5488 19.8555 20.3536C20.0508 20.1583 20.0508 19.8417 19.8555 19.6464L17.145 16.9359Z" fill="#232323"/>
</svg>
